HIERARCHY
ROOT Hips
{
	OFFSET 0.00000 0.00000 0.00000
	CHANNELS 6 Xposition Yposition Zposition Zrotation Yrotation Xrotation 
	JOINT LHipJoint
	{
		OFFSET 0 0 0
		CHANNELS 3 Zrotation Yrotation Xrotation
		JOINT LeftUpLeg
		{
			OFFSET 1.75344 -1.53157 0.77399
			CHANNELS 3 Zrotation Yrotation Xrotation
			JOINT LeftLeg
			{
				OFFSET 2.25415 -6.19323 0.00000
				CHANNELS 3 Zrotation Yrotation Xrotation
				JOINT LeftFoot
				{
					OFFSET 2.30342 -6.32861 0.00000
					CHANNELS 3 Zrotation Yrotation Xrotation
					JOINT LeftToeBase
					{
						OFFSET 0.10958 -0.30108 1.49206
						CHANNELS 3 Zrotation Yrotation Xrotation
						End Site
						{
							OFFSET 0.00000 -0.00000 0.77783
						}
					}
				}
			}
		}
	}
	JOINT RHipJoint
	{
		OFFSET 0 0 0
		CHANNELS 3 Zrotation Yrotation Xrotation
		JOINT RightUpLeg
		{
			OFFSET -1.81912 -1.53156 0.77399
			CHANNELS 3 Zrotation Yrotation Xrotation
			JOINT RightLeg
			{
				OFFSET -2.22882 -6.12365 0.00000
				CHANNELS 3 Zrotation Yrotation Xrotation
				JOINT RightFoot
				{
					OFFSET -2.21943 -6.09785 0.00000
					CHANNELS 3 Zrotation Yrotation Xrotation
					JOINT RightToeBase
					{
						OFFSET -0.18931 -0.52012 1.59379
						CHANNELS 3 Zrotation Yrotation Xrotation
						End Site
						{
							OFFSET -0.00000 -0.00000 0.84686
						}
					}
				}
			}
		}
	}
	JOINT LowerBack
	{
		OFFSET 0 0 0
		CHANNELS 3 Zrotation Yrotation Xrotation
		JOINT Spine
		{
			OFFSET -0.00200 1.66634 -0.14248
			CHANNELS 3 Zrotation Yrotation Xrotation
			JOINT Spine1
			{
				OFFSET -0.00875 1.64542 0.09514
				CHANNELS 3 Zrotation Yrotation Xrotation
				JOINT Neck
				{
					OFFSET 0 0 0
					CHANNELS 3 Zrotation Yrotation Xrotation
					JOINT Neck1
					{
						OFFSET 0.02257 1.59605 0.00839
						CHANNELS 3 Zrotation Yrotation Xrotation
						JOINT Head
						{
							OFFSET -0.10214 1.57530 -0.23335
							CHANNELS 3 Zrotation Yrotation Xrotation
							End Site
							{
								OFFSET -0.03588 1.60717 -0.08062
							}
						}
					}
				}
				JOINT LeftShoulder
				{
					OFFSET 0 0 0
					CHANNELS 3 Zrotation Yrotation Xrotation
					JOINT LeftArm
					{
						OFFSET 2.54983 1.10186 0.40078
						CHANNELS 3 Zrotation Yrotation Xrotation
						JOINT LeftForeArm
						{
							OFFSET 4.28840 -0.00000 0.00000
							CHANNELS 3 Zrotation Yrotation Xrotation
							JOINT LeftHand
							{
								OFFSET 3.06552 -0.00000 -0.00000
								CHANNELS 3 Zrotation Yrotation Xrotation
								JOINT LeftFingerBase
								{
									OFFSET 0 0 0
									CHANNELS 3 Zrotation Yrotation Xrotation
									JOINT LeftHandIndex1
									{
										OFFSET 0.75304 -0.00000 0.00000
										CHANNELS 3 Zrotation Yrotation Xrotation
										End Site
										{
											OFFSET 0.60712 -0.00000 0.00000
										}
									}
								}
								JOINT LThumb
								{
									OFFSET 0 0 0
									CHANNELS 3 Zrotation Yrotation Xrotation
									End Site
									{
										OFFSET 0.61639 -0.00000 0.61639
									}
								}
							}
						}
					}
				}
				JOINT RightShoulder
				{
					OFFSET 0 0 0
					CHANNELS 3 Zrotation Yrotation Xrotation
					JOINT RightArm
					{
						OFFSET -2.60909 1.35448 0.21802
						CHANNELS 3 Zrotation Yrotation Xrotation
						JOINT RightForeArm
						{
							OFFSET -4.52172 -0.00000 -0.00000
							CHANNELS 3 Zrotation Yrotation Xrotation
							JOINT RightHand
							{
								OFFSET -2.89140 -0.00000 0.00000
								CHANNELS 3 Zrotation Yrotation Xrotation
								JOINT RightFingerBase
								{
									OFFSET 0 0 0
									CHANNELS 3 Zrotation Yrotation Xrotation
									JOINT RightHandIndex1
									{
										OFFSET -0.68054 -0.00000 0.00000
										CHANNELS 3 Zrotation Yrotation Xrotation
										End Site
										{
											OFFSET -0.54867 -0.00000 0.00000
										}
									}
								}
								JOINT RThumb
								{
									OFFSET 0 0 0
									CHANNELS 3 Zrotation Yrotation Xrotation
									End Site
									{
										OFFSET -0.55705 -0.00000 0.55705
									}
								}
							}
						}
					}
				}
			}
		}
	}
}
MOTION
Frames: 7
Frame Time: .0083333
9.6065 15.6217 -10.3871 0 0 0 0 0 0 -21 0 0 0 0 0 0 0 0 0 0 0 0 0 0 21 0 0 0 0 0 0 0 0 0 0 0 0 0 0 0 0 0 0 0 0 0 0 -16 0 0 21 0 0 11 0 0 0 -8 0 0 0 0 0 0 0 0 0 0 0 0 0 0 0 0 0 0 0 0 8 0 0 0 0 0 0 0 0 0 0 0 0 0 0 0 0 0
9.6065 15.6217 -10.3871 -0.4962 1.1158 6.5070 0.0000 0.0000 0.0000 -22.5131 -15.8392 -10.8707 2.2681 9.4034 27.0657 1.3005 5.4462 -24.1309 3.2326 -11.0624 -32.4906 0.0000 0.0000 0.0000 26.3711 15.0544 -4.9510 -1.1701 -6.8662 19.3195 0.6276 -20.1391 -23.0328 -0.0809 1.8344 -5.0483 0.7440 0.5441 9.8250 0.2704 0.8480 -2.7754 -0.2763 0.3814 -8.4630 -6.1858 -3.4534 -5.6274 5.4531 -4.4371 4.3342 2.7010 -2.1536 2.6962 -0.0000 -0.0000 0.0000 -82.5562 15.0122 22.2407 18.5061 -28.8004 -4.7906 -0.0000 -0.0000 10.9409 13.6944 -37.8099 -8.4960 -7.1250 0.0000 -0.0000 -10.8139 -8.0263 12.4264 -0.0000 -0.0000 0.0000 79.6942 -15.8766 41.2809 -19.6341 30.1990 -5.3461 0.0000 0.0000 26.7287 -27.0271 -51.5064 21.7649 7.1250 -0.0000 -0.0000 53.4891 -81.4005 -46.2256
9.6041 15.6133 -10.3906 -0.4196 1.0659 6.6946 0.0000 0.0000 0.0000 -22.5064 -15.6427 -11.3376 2.3164 9.4962 27.3602 1.3242 5.1210 -24.1274 3.2019 -11.0150 -32.3303 0.0000 0.0000 0.0000 26.1933 14.9574 -5.6440 -1.2545 -7.1006 20.0137 0.5308 -19.7290 -23.2850 -0.0776 1.7975 -4.9465 0.6728 0.5694 9.9080 0.2300 0.8696 -2.7389 -0.2835 0.3943 -8.4719 -5.9268 -3.5184 -5.7726 5.2072 -4.5170 4.1618 2.5628 -2.1936 2.6521 -0.0000 -0.0000 0.0000 -82.3084 15.4375 22.2242 18.6145 -28.9369 -4.8429 -0.0000 -0.0000 10.8782 13.6762 -37.5298 -8.4317 -7.1250 0.0000 -0.0000 -10.7883 -7.7492 12.3514 -0.0000 -0.0000 0.0000 79.5473 -15.9172 41.2998 -19.5057 30.0422 -5.2816 0.0000 0.0000 26.7472 -26.8353 -51.1625 21.5078 7.1250 -0.0000 -0.0000 51.4794 -81.1773 -44.2042
9.6013 15.6041 -10.3950 -0.3953 1.0322 6.8941 0.0000 0.0000 0.0000 -22.4351 -15.5293 -11.8863 2.3832 9.6223 27.7622 1.3439 4.9577 -24.1889 3.3214 -11.1980 -32.9505 0.0000 0.0000 0.0000 26.0805 14.9256 -6.2684 -1.3233 -7.2853 20.5633 0.4753 -19.4772 -23.4038 -0.0820 1.8473 -5.0839 0.6170 0.5429 9.9650 0.2347 0.8270 -2.6527 -0.2400 0.3770 -8.4129 -5.7921 -3.5228 -5.9382 5.0374 -4.5070 3.8900 2.4782 -2.1886 2.5798 0.0000 0.0000 0.0000 -82.0482 15.8609 22.2779 18.7888 -29.1555 -4.9276 -0.0000 -0.0000 10.7003 13.7687 -37.0574 -8.4000 -7.1250 0.0000 -0.0000 -10.6814 -7.3027 12.1530 0.0000 0.0000 0.0000 79.3544 -15.7940 41.4097 -19.3755 29.8826 -5.2166 0.0000 0.0000 26.7306 -26.1540 -51.3465 20.9814 7.1250 -0.0000 -0.0000 52.9081 -80.9520 -45.2984
9.5977 15.5923 -10.3983 -0.4505 1.0581 7.0304 0.0000 0.0000 0.0000 -22.2853 -15.4380 -12.3797 2.4507 9.7477 28.1634 1.3694 4.8175 -24.3096 3.4467 -11.3853 -33.5906 0.0000 0.0000 0.0000 26.0934 14.9259 -6.7442 -1.3854 -7.4474 21.0479 0.4221 -19.2974 -23.6226 -0.0858 1.8893 -5.1998 0.6875 0.5265 10.0535 0.2141 0.8131 -2.5944 -0.2998 0.3662 -8.4002 -5.7439 -3.5265 -5.9444 5.0209 -4.5091 3.6996 2.4631 -2.1890 2.5148 -0.0000 0.0000 0.0000 -81.7923 16.1654 22.1149 18.7939 -29.1618 -4.9300 -0.0000 -0.0000 10.7712 14.0783 -36.9349 -8.5698 -7.1250 0.0000 -0.0000 -10.5024 -7.2368 11.9322 -0.0000 0.0000 0.0000 79.3493 -15.8467 41.2352 -19.2959 29.7847 -5.1770 0.0000 0.0000 26.6415 -25.0771 -51.6500 20.1522 7.1250 -0.0000 -0.0000 55.1444 -80.5992 -47.0068
9.5925 15.5826 -10.4005 -0.5130 1.1388 7.1705 0.0000 0.0000 0.0000 -22.1167 -15.3978 -12.8580 2.5227 9.8791 28.5862 1.3942 4.6670 -24.4189 3.5110 -11.4795 -33.9147 0.0000 0.0000 0.0000 26.1376 14.9086 -7.1602 -1.4365 -7.5778 21.4388 0.3774 -19.1562 -23.8224 -0.0861 1.8929 -5.2097 0.7457 0.5344 10.2610 0.2034 0.8327 -2.6138 -0.3498 0.3715 -8.5405 -5.7802 -3.5378 -5.9779 5.1249 -4.5235 3.6400 2.5039 -2.1932 2.5070 0.0000 0.0000 0.0000 -81.6785 16.3222 21.5849 18.5879 -28.9034 -4.8301 -0.0000 -0.0000 11.2171 13.9662 -36.8958 -8.4921 -7.1250 0.0000 -0.0000 -10.5571 -7.1788 11.9870 0.0000 0.0000 0.0000 79.2805 -16.0816 41.1003 -19.2697 29.7524 -5.1640 0.0000 0.0000 26.4611 -24.3393 -51.6162 19.5234 7.1250 -0.0000 -0.0000 55.2688 -80.2673 -46.8141
9.5871 15.5758 -10.4039 -0.6554 1.2500 7.3601 0.0000 0.0000 0.0000 -21.8333 -15.4517 -13.3599 2.5949 10.0084 29.0038 1.4301 4.3675 -24.5338 3.4412 -11.3772 -33.5627 0.0000 0.0000 0.0000 26.2527 14.8544 -7.6619 -1.4839 -7.6964 21.7956 0.3576 -19.0586 -23.8529 -0.0818 1.8451 -5.0776 0.8633 0.5127 10.5052 0.2442 0.8258 -2.6179 -0.3743 0.3623 -8.6861 -6.0238 -3.4794 -6.0217 5.4770 -4.4347 3.3985 2.6721 -2.1421 2.4500 0.0000 -0.0000 0.0000 -81.6396 16.4846 21.0212 18.4957 -28.7873 -4.7856 -0.0000 -0.0000 11.6076 13.0628 -36.5366 -7.8646 -7.1250 0.0000 -0.0000 -10.9940 -6.6722 12.4155 0.0000 -0.0000 0.0000 79.0793 -16.3078 41.1213 -19.3256 29.8213 -5.1918 0.0000 0.0000 26.3557 -24.3211 -51.6568 19.5182 7.1250 -0.0000 -0.0000 55.5005 -80.2748 -47.0308
